HIERARCHY
ROOT Hips
{
	OFFSET 0.000000 97.167313 0.000000
	CHANNELS 6 Xposition Yposition Zposition Xrotation Yrotation Zrotation
	JOINT Spine
	{
		OFFSET 0.000000 13.784798 0.064400
		CHANNELS 3 Xrotation Yrotation Zrotation
		JOINT Spine1
		{
			OFFSET 0.000000 12.037903 0.404700
			CHANNELS 3 Xrotation Yrotation Zrotation
			JOINT Spine2
			{
				OFFSET 0.000000 17.795601 0.420200
				CHANNELS 3 Xrotation Yrotation Zrotation
				JOINT Neck
				{
					OFFSET 0.000000 39.131302 11.954600
					CHANNELS 3 Xrotation Yrotation Zrotation
					JOINT Head
					{
						OFFSET 0.000000 14.456192 15.627699
						CHANNELS 3 Xrotation Yrotation Zrotation
						JOINT HeadTop_End
						{
							OFFSET 0.000000 15.703506 7.603401
							CHANNELS 3 Xrotation Yrotation Zrotation
							End Site
							{
								OFFSET 0.000000 17.447403 0.000000
							}
						}
					}
				}
				JOINT LeftShoulder
				{
					OFFSET 17.399500 24.608795 1.168800
					CHANNELS 3 Xrotation Yrotation Zrotation
					JOINT LeftArm
					{
						OFFSET 18.980635 5.765305 1.818600
						CHANNELS 3 Xrotation Yrotation Zrotation
						JOINT LeftForeArm
						{
							OFFSET 49.290169 0.000000 0.000000
							CHANNELS 3 Xrotation Yrotation Zrotation
							JOINT LeftHand
							{
								OFFSET 31.562012 0.000000 0.000000
								CHANNELS 3 Xrotation Yrotation Zrotation
								JOINT LeftHandThumb1
								{
									OFFSET 6.133995 -4.388519 7.076070
									CHANNELS 3 Xrotation Yrotation Zrotation
									JOINT LeftHandThumb2
									{
										OFFSET 6.037666 -3.485840 3.485847
										CHANNELS 3 Xrotation Yrotation Zrotation
										JOINT LeftHandThumb3
										{
											OFFSET 6.496506 -3.750763 3.750761
											CHANNELS 3 Xrotation Yrotation Zrotation
											JOINT LeftHandThumb4
											{
												OFFSET 5.616882 -3.242905 3.242910
												CHANNELS 3 Xrotation Yrotation Zrotation
												End Site
												{
													OFFSET -1.254608 7.132141 0.375429
												}
											}
										}
									}
								}
								JOINT LeftHandPinky1
								{
									OFFSET 18.920792 -0.453171 -11.426712
									CHANNELS 3 Xrotation Yrotation Zrotation
									JOINT LeftHandPinky2
									{
										OFFSET 4.919586 0.000000 0.000000
										CHANNELS 3 Xrotation Yrotation Zrotation
										JOINT LeftHandPinky3
										{
											OFFSET 5.233047 0.000000 0.000000
											CHANNELS 3 Xrotation Yrotation Zrotation
											JOINT LeftHandPinky4
											{
												OFFSET 5.571716 0.000000 0.000000
												CHANNELS 3 Xrotation Yrotation Zrotation
												End Site
												{
													OFFSET -3.459808 4.342407 -0.466164
												}
											}
										}
									}
								}
								JOINT LeftHandRing1
								{
									OFFSET 22.726120 -0.094986 -6.500475
									CHANNELS 3 Xrotation Yrotation Zrotation
									JOINT LeftHandRing2
									{
										OFFSET 6.408615 0.000000 0.000000
										CHANNELS 3 Xrotation Yrotation Zrotation
										JOINT LeftHandRing3
										{
											OFFSET 6.150223 0.000000 0.000000
											CHANNELS 3 Xrotation Yrotation Zrotation
											JOINT LeftHandRing4
											{
												OFFSET 6.145386 0.000000 0.000000
												CHANNELS 3 Xrotation Yrotation Zrotation
												End Site
												{
													OFFSET -3.671402 4.923981 -0.202372
												}
											}
										}
									}
								}
								JOINT LeftHandMiddle1
								{
									OFFSET 23.373947 0.000000 0.000001
									CHANNELS 3 Xrotation Yrotation Zrotation
									JOINT LeftHandMiddle2
									{
										OFFSET 6.996567 0.000000 0.000000
										CHANNELS 3 Xrotation Yrotation Zrotation
										JOINT LeftHandMiddle3
										{
											OFFSET 7.015945 0.000000 0.000000
											CHANNELS 3 Xrotation Yrotation Zrotation
											JOINT LeftHandMiddle4
											{
												OFFSET 7.721573 0.000000 0.000000
												CHANNELS 3 Xrotation Yrotation Zrotation
												End Site
												{
													OFFSET -4.651108 6.158463 0.251582
												}
											}
										}
									}
								}
								JOINT LeftHandIndex1
								{
									OFFSET 21.310577 -0.490082 6.209344
									CHANNELS 3 Xrotation Yrotation Zrotation
									JOINT LeftHandIndex2
									{
										OFFSET 7.536453 0.000000 0.000000
										CHANNELS 3 Xrotation Yrotation Zrotation
										JOINT LeftHandIndex3
										{
											OFFSET 7.512344 0.000000 0.000000
											CHANNELS 3 Xrotation Yrotation Zrotation
											JOINT LeftHandIndex4
											{
												OFFSET 10.212402 0.000000 0.000001
												CHANNELS 3 Xrotation Yrotation Zrotation
												End Site
												{
													OFFSET -5.180801 8.690506 1.388433
												}
											}
										}
									}
								}
							}
						}
					}
				}
				JOINT RightShoulder
				{
					OFFSET -17.399500 24.608795 1.168800
					CHANNELS 3 Xrotation Yrotation Zrotation
					JOINT RightArm
					{
						OFFSET -18.980635 5.765305 1.818600
						CHANNELS 3 Xrotation Yrotation Zrotation
						JOINT RightForeArm
						{
							OFFSET -49.290169 0.000000 0.000000
							CHANNELS 3 Xrotation Yrotation Zrotation
							JOINT RightHand
							{
								OFFSET -31.562012 0.000000 0.000000
								CHANNELS 3 Xrotation Yrotation Zrotation
								JOINT RightHandThumb1
								{
									OFFSET -6.133995 -4.388519 7.076070
									CHANNELS 3 Xrotation Yrotation Zrotation
									JOINT RightHandThumb2
									{
										OFFSET -6.037666 -3.485840 3.485847
										CHANNELS 3 Xrotation Yrotation Zrotation
										JOINT RightHandThumb3
										{
											OFFSET -6.496506 -3.750763 3.750761
											CHANNELS 3 Xrotation Yrotation Zrotation
											JOINT RightHandThumb4
											{
												OFFSET -5.616882 -3.242905 3.242910
												CHANNELS 3 Xrotation Yrotation Zrotation
												End Site
												{
													OFFSET 1.254608 7.132141 0.375429
												}
											}
										}
									}
								}
								JOINT RightHandIndex1
								{
									OFFSET -21.310577 -0.490082 6.209344
									CHANNELS 3 Xrotation Yrotation Zrotation
									JOINT RightHandIndex2
									{
										OFFSET -7.536453 0.000000 0.000000
										CHANNELS 3 Xrotation Yrotation Zrotation
										JOINT RightHandIndex3
										{
											OFFSET -7.512344 0.000000 0.000000
											CHANNELS 3 Xrotation Yrotation Zrotation
											JOINT RightHandIndex4
											{
												OFFSET -10.212402 0.000000 0.000001
												CHANNELS 3 Xrotation Yrotation Zrotation
												End Site
												{
													OFFSET 5.180801 8.690506 1.388433
												}
											}
										}
									}
								}
								JOINT RightHandMiddle1
								{
									OFFSET -23.373947 0.000000 0.000001
									CHANNELS 3 Xrotation Yrotation Zrotation
									JOINT RightHandMiddle2
									{
										OFFSET -6.996567 0.000000 0.000000
										CHANNELS 3 Xrotation Yrotation Zrotation
										JOINT RightHandMiddle3
										{
											OFFSET -7.015945 0.000000 0.000000
											CHANNELS 3 Xrotation Yrotation Zrotation
											JOINT RightHandMiddle4
											{
												OFFSET -7.721573 0.000000 0.000000
												CHANNELS 3 Xrotation Yrotation Zrotation
												End Site
												{
													OFFSET 4.651108 6.158463 0.251582
												}
											}
										}
									}
								}
								JOINT RightHandRing1
								{
									OFFSET -22.726120 -0.094986 -6.500475
									CHANNELS 3 Xrotation Yrotation Zrotation
									JOINT RightHandRing2
									{
										OFFSET -6.408615 0.000000 0.000000
										CHANNELS 3 Xrotation Yrotation Zrotation
										JOINT RightHandRing3
										{
											OFFSET -6.150223 0.000000 0.000000
											CHANNELS 3 Xrotation Yrotation Zrotation
											JOINT RightHandRing4
											{
												OFFSET -6.145386 0.000000 0.000000
												CHANNELS 3 Xrotation Yrotation Zrotation
												End Site
												{
													OFFSET 3.671402 4.923981 -0.202372
												}
											}
										}
									}
								}
								JOINT RightHandPinky1
								{
									OFFSET -18.920792 -0.453171 -11.426712
									CHANNELS 3 Xrotation Yrotation Zrotation
									JOINT RightHandPinky2
									{
										OFFSET -4.919586 0.000000 0.000000
										CHANNELS 3 Xrotation Yrotation Zrotation
										JOINT RightHandPinky3
										{
											OFFSET -5.233047 0.000000 0.000000
											CHANNELS 3 Xrotation Yrotation Zrotation
											JOINT RightHandPinky4
											{
												OFFSET -5.571716 0.000000 0.000000
												CHANNELS 3 Xrotation Yrotation Zrotation
												End Site
												{
													OFFSET 3.459808 4.342407 -0.466164
												}
											}
										}
									}
								}
							}
						}
					}
				}
			}
		}
	}
	JOINT LeftUpLeg
	{
		OFFSET 19.899099 -7.885101 -3.429500
		CHANNELS 3 Xrotation Yrotation Zrotation
		JOINT LeftLeg
		{
			OFFSET 1.745560 -36.997807 10.304700
			CHANNELS 3 Xrotation Yrotation Zrotation
			JOINT LeftFoot
			{
				OFFSET -1.745558 -29.803308 -13.615400
				CHANNELS 3 Xrotation Yrotation Zrotation
				JOINT LeftToeBase
				{
					OFFSET 1.181900 -18.539904 15.226099
					CHANNELS 3 Xrotation Yrotation Zrotation
					JOINT LeftToe_End
					{
						OFFSET -0.863701 1.402801 16.534700
						CHANNELS 3 Xrotation Yrotation Zrotation
						End Site
						{
							OFFSET 0.000000 16.616566 0.000000
						}
					}
				}
			}
		}
	}
	JOINT RightUpLeg
	{
		OFFSET -19.899099 -7.885101 -3.429500
		CHANNELS 3 Xrotation Yrotation Zrotation
		JOINT RightLeg
		{
			OFFSET -1.745560 -36.997807 10.304700
			CHANNELS 3 Xrotation Yrotation Zrotation
			JOINT RightFoot
			{
				OFFSET 1.745558 -29.803308 -13.615400
				CHANNELS 3 Xrotation Yrotation Zrotation
				JOINT RightToeBase
				{
					OFFSET -1.181900 -18.539904 15.226099
					CHANNELS 3 Xrotation Yrotation Zrotation
					JOINT RightToe_End
					{
						OFFSET 0.863701 1.402801 16.534700
						CHANNELS 3 Xrotation Yrotation Zrotation
						End Site
						{
							OFFSET 0.000000 16.616566 0.000000
						}
					}
				}
			}
		}
	}
}
MOTION
Frames: 4
Frame Time: 0.033333
0.105397 91.496750 1.922187 -7.184404 -4.334388 3.380552 5.363064 2.130387 -2.488176 1.505170 0.747186 -0.673594 1.495722 0.757933 -0.663007 2.343044 5.365177 1.671579 3.333223 -10.641018 2.463500 -0.000000 -0.000001 0.000000 -0.622562 -16.371024 -20.154065 10.474877 -1.758900 -35.848111 0.003256 -89.215822 0.003800 -122.062843 -18.032434 10.746536 -12.800137 -17.470118 4.121646 1.000147 0.731317 -1.438314 -7.335818 -0.421728 13.147355 -0.000001 0.000001 -0.000001 6.410323 8.363714 -80.414563 1.722725 4.149880 -45.074430 0.636275 2.657162 -26.928198 -0.000001 0.000002 -0.000005 4.717025 8.075512 -77.582275 2.056308 4.456864 -49.517659 1.539983 3.959686 -42.490617 0.000002 0.000000 0.000003 2.434394 7.296053 -69.364089 3.297863 5.266357 -64.088662 0.787094 2.934904 -30.019545 -0.000002 -0.000001 0.000002 -3.532555 4.254337 -63.954579 3.402097 5.315518 -65.218949 1.034624 3.326109 -34.549822 -0.000001 0.000003 0.000002 0.754309 18.436752 11.542206 10.687457 23.553376 38.393241 0.000197 97.831552 -0.000147 -34.555505 -20.184360 22.175780 20.470547 7.475584 18.843585 4.151745 -12.160918 -33.847976 -6.346165 -41.944045 -36.535481 -0.000000 0.000002 -0.000001 -0.887111 1.427980 12.684522 1.917430 -3.767465 53.934346 3.057977 -4.374563 69.896782 -0.000002 0.000000 0.000001 0.770895 -5.199588 54.618830 5.563869 -4.568230 101.238573 4.771467 -4.655771 91.407875 -0.000000 0.000002 -0.000004 6.934464 -8.544291 63.908769 2.909303 -4.317389 67.934721 1.862865 -3.727185 53.099438 -0.000001 -0.000000 0.000002 8.373383 -8.171754 73.989943 2.173671 -3.940951 57.745397 1.042006 -2.937903 39.049868 -0.000003 -0.000002 0.000002 -10.538594 11.246052 7.865778 14.329564 6.156310 0.457484 4.968857 1.181079 -7.884047 0.000001 0.000005 -0.000004 0.000000 0.000002 -0.000000 10.546834 -15.762512 -7.223176 19.440084 -7.454835 -2.658792 -21.782909 -8.166231 9.877209 -2.173311 0.000027 0.000001 0.000000 -0.000003 -0.000000 
0.112772 91.497292 1.907052 -7.185706 -4.472028 3.382689 5.363324 2.149364 -2.488950 1.505170 0.747186 -0.673594 1.495722 0.757933 -0.663007 2.343045 5.219600 1.684306 3.291012 -10.722841 2.506616 -0.000000 -0.000000 0.000000 -0.622562 -16.371026 -20.154068 10.562367 -1.615549 -35.822153 0.000144 -89.492950 0.000135 -121.954926 -18.212730 10.910766 -12.800135 -17.470114 4.121644 1.000145 0.731320 -1.438312 -7.335816 -0.421731 13.147354 -0.000000 0.000001 -0.000003 6.410323 8.363713 -80.414563 1.722725 4.149880 -45.074433 0.636275 2.657162 -26.928197 -0.000000 0.000002 -0.000011 4.717023 8.075512 -77.582275 2.056307 4.456865 -49.517659 1.539982 3.959687 -42.490617 -0.000001 0.000000 0.000003 2.434394 7.296052 -69.364095 3.297864 5.266355 -64.088655 0.787097 2.934903 -30.019549 -0.000002 0.000002 0.000004 -3.532555 4.254337 -63.954586 3.402100 5.315516 -65.218942 1.034623 3.326109 -34.549822 -0.000000 0.000002 -0.000003 0.754309 18.436750 11.542205 10.687460 23.553368 38.393231 0.000317 97.831532 -0.000276 -34.597995 -20.105140 22.300716 20.470545 7.475591 18.843590 4.151746 -12.160912 -33.847976 -6.346166 -41.944045 -36.535478 0.000005 0.000000 0.000001 -0.887109 1.427988 12.684523 1.917428 -3.767459 53.934346 3.057977 -4.374559 69.896782 -0.000000 -0.000002 0.000004 0.770896 -5.199592 54.618837 5.563867 -4.568230 101.238573 4.771470 -4.655772 91.407875 -0.000000 0.000002 0.000001 6.934465 -8.544292 63.908769 2.909301 -4.317388 67.934721 1.862860 -3.727181 53.099444 -0.000000 -0.000001 -0.000005 8.373383 -8.171754 73.989943 2.173672 -3.940950 57.745390 1.042012 -2.937907 39.049868 -0.000003 -0.000001 -0.000001 -10.485573 11.246754 7.866629 14.325246 6.224027 0.446512 4.948192 1.249957 -7.903623 -0.000065 -0.000000 0.000006 -0.000000 0.000002 -0.000000 10.429570 -15.751285 -7.285644 19.518999 -7.356254 -2.661764 -21.775055 -8.121080 9.848752 -2.173306 -0.000014 0.000001 0.000000 -0.000002 -0.000000 
0.119699 91.503784 1.889313 -7.186553 -4.561576 3.386628 5.363745 2.176934 -2.500820 1.505169 0.747187 -0.673594 1.495723 0.757933 -0.663007 2.347926 5.103902 1.714780 3.267383 -10.829629 2.555979 0.000000 -0.000000 -0.000000 -0.622562 -16.371026 -20.154066 10.652489 -1.466459 -35.794897 0.018560 -89.781669 0.016403 -121.840480 -18.399715 11.083679 -12.800136 -17.470118 4.121640 1.000147 0.731318 -1.438311 -7.335817 -0.421728 13.147352 -0.000003 -0.000002 0.000003 6.410324 8.363713 -80.414563 1.722726 4.149880 -45.074430 0.636276 2.657162 -26.928198 -0.000003 -0.000000 -0.000004 4.717024 8.075510 -77.582275 2.056307 4.456868 -49.517659 1.539983 3.959686 -42.490617 -0.000002 0.000000 0.000003 2.434397 7.296052 -69.364095 3.297864 5.266357 -64.088662 0.787096 2.934902 -30.019549 0.000001 0.000000 0.000006 -3.532551 4.254339 -63.954586 3.402098 5.315518 -65.218949 1.034623 3.326111 -34.549819 -0.000002 0.000001 0.000001 0.754309 18.436750 11.542205 10.687459 23.553381 38.393241 -0.000162 97.831545 0.000156 -34.643201 -20.021663 22.430211 20.470548 7.475590 18.843584 4.151746 -12.160919 -33.847976 -6.346167 -41.944045 -36.535481 0.000002 -0.000001 0.000004 -0.887111 1.427976 12.684524 1.917429 -3.767453 53.934346 3.057972 -4.374564 69.896782 -0.000002 0.000001 -0.000001 0.770894 -5.199593 54.618834 5.563867 -4.568232 101.238580 4.771467 -4.655770 91.407882 0.000002 0.000000 -0.000004 6.934464 -8.544292 63.908775 2.909302 -4.317391 67.934714 1.862862 -3.727184 53.099441 -0.000000 0.000001 -0.000003 8.373382 -8.171759 73.989937 2.173671 -3.940952 57.745404 1.042003 -2.937899 39.049865 0.000001 -0.000004 0.000005 -10.439424 11.248375 7.856607 14.297621 6.253392 0.439147 4.948002 1.312190 -7.910701 -0.000016 0.000000 -0.000006 -0.000000 0.000002 0.000000 10.357389 -15.740287 -7.335003 19.555405 -7.316085 -2.661923 -21.757284 -8.072128 9.843759 -2.173314 -0.000002 -0.000001 0.000000 -0.000002 -0.000000 
0.125750 91.514847 1.869843 -7.187096 -4.620031 3.391880 5.364265 2.210130 -2.514441 1.505170 0.757086 -0.673595 1.495722 0.767717 -0.663007 2.360386 5.007536 1.756732 3.247728 -10.965635 2.614432 -0.000000 0.000000 -0.000000 -0.622562 -16.371026 -20.154066 10.744854 -1.312356 -35.766566 -0.016162 -90.080530 -0.024368 -121.719995 -18.592458 11.264414 -12.800138 -17.470118 4.121643 1.000147 0.731318 -1.438312 -7.335817 -0.421728 13.147355 -0.000002 -0.000001 0.000003 6.410321 8.363711 -80.414570 1.722725 4.149880 -45.074433 0.636273 2.657164 -26.928198 0.000001 0.000003 -0.000004 4.717025 8.075511 -77.582275 2.056307 4.456867 -49.517659 1.539979 3.959685 -42.490617 -0.000000 0.000000 0.000007 2.434394 7.296051 -69.364089 3.297862 5.266359 -64.088655 0.787097 2.934906 -30.019549 -0.000000 0.000000 0.000008 -3.532553 4.254337 -63.954586 3.402095 5.315518 -65.218949 1.034623 3.326110 -34.549822 -0.000000 0.000003 -0.000001 0.754309 18.436752 11.542204 10.687447 23.553381 38.393248 -0.000197 97.831518 0.000228 -34.690876 -19.934418 22.563772 20.470541 7.475591 18.843594 4.151747 -12.160916 -33.847972 -6.346167 -41.944045 -36.535478 0.000002 -0.000001 0.000001 -0.887113 1.427984 12.684521 1.917429 -3.767458 53.934346 3.057974 -4.374558 69.896775 -0.000001 -0.000001 0.000001 0.770895 -5.199593 54.618830 5.563868 -4.568234 101.238573 4.771469 -4.655770 91.407882 0.000001 0.000000 -0.000008 6.934463 -8.544288 63.908769 2.909303 -4.317390 67.934714 1.862862 -3.727183 53.099441 -0.000001 0.000002 -0.000003 8.373385 -8.171753 73.989950 2.173671 -3.940948 57.745390 1.042010 -2.937905 39.049872 -0.000003 -0.000001 0.000004 -10.396205 11.251125 7.840131 14.251985 6.255321 0.432425 4.962483 1.372072 -7.908931 -0.000011 -0.000003 0.000004 0.000000 0.000002 -0.000000 10.316608 -15.729697 -7.373526 19.562065 -7.320861 -2.662216 -21.733131 -8.015651 9.856526 -2.173314 -0.000008 0.000001 0.000000 -0.000001 -0.000000 
